<svg id="Layer_1" data-name="Layer 1" xmlns="http://www.w3.org/2000/svg" viewBox="0 0 250 250"><defs><style>.cls-1{fill:#010101;}.cls-2{fill:#e8e623;}.cls-3{fill:#e69e24;}.cls-4{fill:#fff;}.cls-5{fill:#e5ce23;}</style></defs><title>Artboard 1</title><path class="cls-1" d="M48.44,101.15a1.82,1.82,0,0,1-2.11-.8,3.59,3.59,0,0,1,0-2.69c.23-.85,1-1.93,1.74-1.4a4,4,0,0,1,1.65,2.43,2.23,2.23,0,0,1-1.3,2.45"/><path class="cls-1" d="M48.33,99.63c.12-.61-1-1-1.05-.4a.75.75,0,0,0,1.08.39Z"/><path class="cls-1" d="M139.52,204.41a100.25,100.25,0,0,1-24.09-2.94c-17.75-4.4-31.34-13.41-38.25-25.38-5.44-9.42-6.81-20.33-8.13-30.88-.33-2.65-.68-5.39-1.08-8s-1.64-5.3-3-6.19a1.71,1.71,0,0,0-1.46-.27A59.26,59.26,0,0,1,22,125.67c-2.66-1.4-6-3.43-8.14-6.62-2.42-3.59-2.74-8-.81-11.23s5.36-4.52,8.41-5.7l1.25-.49a36.27,36.27,0,0,0,13.89-10c1.12-1.31,1-1.78,1-1.83A34.26,34.26,0,0,1,63.83,45.59l-3.68-2.84.84-1.5c2.06-3.68,7.09-3.25,8.75-3.11,8.81.76,18.15,2,26.73,5.9C106,48.36,113,55.6,115.76,63.9c3.57,10.73.1,22.1-3.32,30.81-2,5-4.21,10.71-2,15.09,1.37,2.72,4.54,4.71,8.28,5.2s7.75-.43,11.11-1.41c10.42-3,20.37-8.11,30-13,6-3.07,12.25-6.24,18.59-8.92C192.9,85.51,214,80.07,231.91,89c3.45,1.72,5,4.66,3.83,7.15l-.7,1.46-1.57-.38c-3-.74-6.15,2.3-7,5.49s-.39,6.48.09,10c.09.67.18,1.35.27,2,3.34,27-9.42,55.38-32.51,72.34C178.88,198.43,159.46,204.41,139.52,204.41ZM64,126.67a5.74,5.74,0,0,1,3.22,1c2.75,1.83,4.24,5.81,4.71,8.91.41,2.7.76,5.46,1.09,8.14,1.27,10.16,2.59,20.66,7.62,29.37,6.36,11,19.06,19.36,35.75,23.49,26.64,6.6,54.88,1.48,75.54-13.69,21.95-16.11,34.08-43,30.91-68.62-.08-.65-.17-1.31-.26-2-.52-3.8-1.06-7.74,0-11.65s4.54-7.73,8.59-8.43a6.21,6.21,0,0,0-1.05-.66c-16.6-8.25-36.45-3.06-50.17,2.75-6.21,2.63-12.37,5.77-18.33,8.8-9.78,5-19.89,10.14-30.67,13.29-3.76,1.1-8.21,2.14-12.76,1.54-5.1-.67-9.34-3.42-11.32-7.36-3-6-.33-12.84,1.84-18.36,3.17-8.08,6.41-18.57,3.25-28.08-2.41-7.25-8.66-13.62-17.14-17.48-8-3.65-17-4.83-25.42-5.56a11.11,11.11,0,0,0-3.37.11l8.44,6.52L69,49A30.29,30.29,0,0,0,41.45,88.6c.85,2.62-1.12,4.92-1.77,5.67a40.29,40.29,0,0,1-15.43,11.06l-1.31.51c-2.69,1-5.22,2-6.42,4-1.29,2.17-.59,5,.69,6.94,1.66,2.46,4.45,4.14,6.69,5.33a55.18,55.18,0,0,0,38.65,4.71A5.94,5.94,0,0,1,64,126.67Z"/><path class="cls-1" d="M62.74,42.22c1.23-2.2,4.31-2.31,6.83-2.09,8.91.76,17.94,2,26.08,5.73S111,56,113.86,64.53c3.18,9.57.41,20.06-3.28,29.44-2.12,5.39-4.53,11.55-1.92,16.72,1.82,3.6,5.8,5.75,9.8,6.28s8.06-.34,11.93-1.48c17.15-5,32.34-15,48.79-22S215,82.83,231,90.78c1.78.89,3.78,2.7,2.92,4.5-4.19-1-8.28,2.75-9.42,6.9s-.22,8.56.31,12.84c3.32,26.81-9.94,54.5-31.71,70.48s-51,20.52-77.2,14c-14.75-3.65-29.4-11.28-37-24.43-6.59-11.41-7-25.19-9-38.21-.6-4-3-9.07-6.9-8.1A57.11,57.11,0,0,1,23,123.91c-2.84-1.5-5.62-3.32-7.42-6s-2.39-6.33-.75-9.08c1.78-3,5.47-4.07,8.69-5.36A38.29,38.29,0,0,0,38.17,93c.91-1.06,1.81-2.42,1.38-3.75A32.29,32.29,0,0,1,68.91,47l-6.17-4.77"/><path class="cls-2" d="M70.79,46c1,2.52-5.59,1.72-5.71,4.44a15.53,15.53,0,0,1,5.76,4c-4.15,1-7.79-5.29-11.75-3.7a33,33,0,0,0-15,12.13c2.16-.5,4.38,1.1,5.26,3.13a11.59,11.59,0,0,1,.34,6.54c-.43,2.51-1.18,5.11-3,6.89s-5,2.41-6.91.75a20.66,20.66,0,0,0,2.45,9.37A8.35,8.35,0,0,1,54.1,88.25c2.77,2.51,3.65,6.8,6.81,8.78,4.25,2.65,10-.31,14.75,1.13,6,1.8,7.91,10,5.31,15.71s-8.14,9.4-13.4,12.8c7.17,13.26,4.18,30,10.37,43.76,6.27,13.92,20.92,22.26,35.62,26.39,22.75,6.39,48,4.6,68.87-6.56s36.65-32,40.14-55.35c2.25-19.89-3.63-24.37.75-35.37l-5.13,4.86a15.76,15.76,0,0,1,12.86-10.7C226,89.35,219,88,212.32,88c-25.82-.26-48.6,15.51-72.23,25.91-5.55,2.44-11.35,4.64-17.41,4.82s-12.47-2-16.12-6.8l.59,12.66c-4.49-9-1.87-19.73,1.3-29.24s6.83-19.65,4.14-29.31C110,56.85,102.06,50,93.25,46.47s-18.45-4.26-27.92-4.82L69.9,45a2.42,2.42,0,0,1,.89.95"/><path class="cls-3" d="M46.43,128.87A35.51,35.51,0,0,0,73.36,121c3.83-3.21,7.12-7.69,7-12.69s-5-9.92-9.78-8.55a13.32,13.32,0,0,1-14.46-5.5c-1.09-1.72-1.83-3.75-3.46-5a7,7,0,0,0-6.76-.46,20.6,20.6,0,0,0-5.73,4.1L27.89,104c-1.26,1.14-2.8,2.36-4.45,2a6.74,6.74,0,0,0-7.82,6c-.19,3.67,2.7,6.76,5.71,8.86a34.89,34.89,0,0,0,50.3-11.28l-4.37-1.8c3-2.12,7.86-.29,8.72,3.26l-3-.55c-4.86,9.93-16.21,14.57-26.59,18.38"/><path class="cls-1" d="M70.88,63.2c2.8,1.34,3.94,4.76,4.06,7.87a16.51,16.51,0,0,1-2.86,10.26c-1.85,2.58-5.18,4.56-8.16,3.46a6.53,6.53,0,0,1-3.69-4.18,15.27,15.27,0,0,1-.48-5.72c.2-3.18.77-6.49,2.7-9s5.55-4,8.43-2.65"/><path class="cls-4" d="M73,69.1a6.3,6.3,0,0,0-3-4.39c-2.17-1-4.9.16-6.33,2.1s-1.85,4.43-2.15,6.82a14.18,14.18,0,0,0,.11,5.62,5.31,5.31,0,0,0,3.73,3.89c2.53.52,4.91-1.53,6.18-3.78A14.27,14.27,0,0,0,73,69.1Z"/><path class="cls-4" d="M48.44,69.86c0-2-.61-4.5-2.58-5a3.47,3.47,0,0,0-3.42,1.32,8.49,8.49,0,0,0-1.5,3.53,33.11,33.11,0,0,0-.83,5.86,4.7,4.7,0,0,0,.38,2.55c.85,1.53,3.15,1.71,4.62.76a7.27,7.27,0,0,0,2.68-4.37A19.07,19.07,0,0,0,48.44,69.86Z"/><path class="cls-5" d="M77.55,155.65s1.38,38.12,57.88,40S215,147.32,215,147.32s-18.46,32-72.72,31.4S77.55,155.65,77.55,155.65Z"/></svg>